<svg xmlns="http://www.w3.org/2000/svg" xmlns:xlink="http://www.w3.org/1999/xlink" width="25" height="25" viewBox="0 0 25 25">
  <defs>
    <clipPath id="clip-animation">
      <rect width="25" height="25"/>
    </clipPath>
  </defs>
  <g id="animation" clip-path="url(#clip-animation)">
    <rect width="25" height="25" fill="#fff"/>
    <g id="animation-2" data-name="animation" transform="translate(0.5 0.501)">
      <g id="Group_2" data-name="Group 2">
        <path id="Path_11" data-name="Path 11" d="M11.307,0h1.4c.222.03.444.062.667.089a10.669,10.669,0,0,1,5.6,2.378,11.848,11.848,0,0,1,4.437,10.941,11.417,11.417,0,0,1-4.94,8.451A10.692,10.692,0,0,1,7.5,22.982,11.962,11.962,0,0,1,.558,10.75,11.843,11.843,0,0,1,2.719,4.924,11.3,11.3,0,0,1,10.041.184C10.459.1,10.885.06,11.307,0ZM4.814,6.259c-.018.062-.024.092-.035.121a10.132,10.132,0,0,0-.3,6.2,5.212,5.212,0,0,0,1.243,2.4,2.066,2.066,0,0,0,3.025.164,3.982,3.982,0,0,0,1.1-1.607,10.092,10.092,0,0,0,.359-6.15A5.206,5.206,0,0,0,8.937,4.872,2.067,2.067,0,0,0,6.783,4.2c-.337.094-.439.04-.539-.3-.026-.09-.033-.185-.063-.273a.349.349,0,0,0-.415-.259.339.339,0,0,0-.307.354A.712.712,0,0,0,5.494,4c.093.243.2.48.328.774a1.228,1.228,0,0,1-.334-.1A1.149,1.149,0,0,1,5.239,4.4.392.392,0,0,0,4.7,4.252a.364.364,0,0,0-.071.569c.162.214.359.4.538.6A.322.322,0,0,1,4.67,5.37a1.746,1.746,0,0,1-.176-.216.388.388,0,0,0-.561-.144c-.189.134-.208.34-.053.576A1.426,1.426,0,0,0,4.814,6.259Zm9.358,0c-.017.06-.022.09-.033.118a10.135,10.135,0,0,0-.3,6.2,5.215,5.215,0,0,0,1.243,2.4,2.067,2.067,0,0,0,3.025.166,3.984,3.984,0,0,0,1.1-1.607,10.092,10.092,0,0,0,.359-6.15A5.215,5.215,0,0,0,18.3,4.874,2.072,2.072,0,0,0,16.164,4.2c-.372.1-.478.041-.576-.339-.019-.075-.023-.155-.048-.228a.348.348,0,0,0-.415-.258.338.338,0,0,0-.307.354A.709.709,0,0,0,14.853,4c.093.243.2.48.324.763a1.042,1.042,0,0,1-.312-.077,1.083,1.083,0,0,1-.253-.269c-.167-.221-.372-.285-.558-.164A.371.371,0,0,0,14,4.843c.158.207.352.386.534.582a.34.34,0,0,1-.5-.051c-.075-.078-.136-.169-.2-.255a.383.383,0,0,0-.534-.109.367.367,0,0,0-.08.535A1.438,1.438,0,0,0,14.172,6.26Zm-4.283,11.7c.209-.184.428-.359.624-.556a.363.363,0,0,0,0-.542.368.368,0,0,0-.526.017c-.058.052-.109.112-.167.164a1.232,1.232,0,0,1-1.51.3.36.36,0,0,0-.5.162A.346.346,0,0,0,7.977,18a4.881,4.881,0,0,0,.916.232c.126.02.188.04.233.162.109.291.227.58.359.862a4.917,4.917,0,0,0,1.184,1.72,1.7,1.7,0,0,0,2.176.146,5.334,5.334,0,0,0,1.667-1.926c.285-.5.534-1.017.785-1.5.347.028.686.071,1.025.079a.359.359,0,0,0,.365-.377.376.376,0,0,0-.381-.364c-.086,0-.172,0-.257,0a1.233,1.233,0,0,1-1.255-.858.359.359,0,0,0-.465-.242.355.355,0,0,0-.228.487c.113.276.264.537.411.828a4.921,4.921,0,0,1-1.621,1.318A2.61,2.61,0,0,1,9.889,17.965Z" fill="orange"/>
        <path id="Path_12" data-name="Path 12" d="M9.215,6.75a1.6,1.6,0,0,0-2.138.606,4.088,4.088,0,0,0-.66,2.066A5.2,5.2,0,0,0,6.8,11.983a2.371,2.371,0,0,0,.7.949,1.453,1.453,0,0,0,1.556.222c.036-.015.072-.03.108-.043.005,0,.013,0,.045.016a3.251,3.251,0,0,1-1.2,1.641,1.286,1.286,0,0,1-1.663-.232,3.946,3.946,0,0,1-1.025-1.783,9.424,9.424,0,0,1,.1-5.945,3.69,3.69,0,0,1,.9-1.482A1.332,1.332,0,0,1,8.316,5.3,3.773,3.773,0,0,1,9.215,6.75Z" fill="orange"/>
        <path id="Path_13" data-name="Path 13" d="M9.579,11.323l-.439-.754H9.07a.6.6,0,0,1-.4.625,1.13,1.13,0,0,1,.089.979,1.5,1.5,0,0,1-.318.363,1.455,1.455,0,0,1-.3-.36,1.063,1.063,0,0,1,.135-1.03.61.61,0,0,1-.24-.734,1.414,1.414,0,0,0-.66.88H7.3c-.052-.43-.132-.859-.15-1.29a3.851,3.851,0,0,1,.42-2.012c.189-.351.43-.68.875-.683s.7.331.893.692a4.2,4.2,0,0,1,.4,2.386C9.709,10.69,9.637,10.991,9.579,11.323Z" fill="orange"/>
        <path id="Path_14" data-name="Path 14" d="M14.8,13.1a1.643,1.643,0,0,0,2.2-.71,4.16,4.16,0,0,0,.6-1.992,4.909,4.909,0,0,0-.531-2.828,1.7,1.7,0,0,0-1.262-.979,4.725,4.725,0,0,0-.977.077,3.082,3.082,0,0,1,1.254-1.636,1.288,1.288,0,0,1,1.6.29A3.837,3.837,0,0,1,18.665,7a9.236,9.236,0,0,1-.206,6.377,2.991,2.991,0,0,1-.937,1.29,1.275,1.275,0,0,1-1.711-.031A3.644,3.644,0,0,1,14.8,13.1Z" fill="orange"/>
        <path id="Path_15" data-name="Path 15" d="M15.4,11.146a.6.6,0,0,1-.235-.733,1.508,1.508,0,0,0-.69.882A4.347,4.347,0,0,1,14.738,7.9c.455-.815,1.19-.8,1.661.008a4.09,4.09,0,0,1,.452,2.466c-.026.308-.1.612-.159.946l-.446-.756-.064.014a.594.594,0,0,1-.4.611,1.249,1.249,0,0,1,.108.931c-.055.18-.112.4-.328.4s-.278-.222-.329-.4A1.1,1.1,0,0,1,15.4,11.146Z" fill="orange"/>
        <path id="Path_16" data-name="Path 16" d="M10.337,19.238a3.519,3.519,0,0,0,3.4-.257,4.206,4.206,0,0,1-1.389,1.567.942.942,0,0,1-1.149-.106A3.211,3.211,0,0,1,10.337,19.238Z" fill="orange"/>
      </g>
    </g>
  </g>
</svg>
