<svg xmlns="http://www.w3.org/2000/svg" xmlns:xlink="http://www.w3.org/1999/xlink" width="25" height="25" viewBox="0 0 25 25">
  <defs>
    <clipPath id="clip-logo">
      <rect width="25" height="25"/>
    </clipPath>
  </defs>
  <g id="logo" clip-path="url(#clip-logo)">
    <rect width="25" height="25" fill="#fff"/>
    <g id="logo_1_" data-name="logo (1)" transform="translate(0.5 0.397)">
      <g id="Group_1" data-name="Group 1">
        <path id="Path_1" data-name="Path 1" d="M16.4,12.31,19.211,14c-.038.072-.064.131-.1.186q-2.76,4.575-5.518,9.149A1.622,1.622,0,0,1,12.1,24.2a1.562,1.562,0,0,1-1.43-.906,1.649,1.649,0,0,1,.117-1.693q2.224-3.678,4.442-7.359Z" fill="orange"/>
        <path id="Path_2" data-name="Path 2" d="M2.622,11.006,5.365,9.195c.284.428.555.834.823,1.241q1.527,2.315,3.048,4.632a.863.863,0,0,1,.16.432c.011,1.861.007,3.722.006,5.583,0,.033-.009.065-.025.175Z" fill="orange"/>
        <path id="Path_3" data-name="Path 3" d="M23.806,3.233c.026.5.052.97.078,1.461-.552.138-1.088.247-1.608.407A3.282,3.282,0,0,0,19.95,7.49a.554.554,0,0,0,.35.744c.315.094.587-.087.7-.471a2.247,2.247,0,0,1,1.746-1.654c.386-.09.769-.19,1.237-.307,0,.617.039,1.178-.008,1.732a3.716,3.716,0,0,1-1.648,2.716,1.329,1.329,0,0,1-1.878.037,15.467,15.467,0,0,0-1.9-1.156c-.257-.146-.388-.292-.322-.615.111-.545.107-1.121.27-1.648A3.218,3.218,0,0,1,20.237,4.89c1.129-.549,2.269-1.075,3.405-1.609C23.68,3.265,23.724,3.258,23.806,3.233Z" fill="orange"/>
        <path id="Path_4" data-name="Path 4" d="M10.511,19.9V11.7h3.278c0,.919,0,1.829,0,2.738a.464.464,0,0,1-.082.219q-1.533,2.55-3.072,5.1A1.8,1.8,0,0,1,10.511,19.9Z" fill="orange"/>
        <path id="Path_5" data-name="Path 5" d="M11.523,7.321c-.076-.072-.18-.129-.224-.217q-.858-1.7-1.695-3.4a.387.387,0,0,1,.006-.333C10.435,2.251,11.273,1.139,12.128,0a2.721,2.721,0,0,1,.188.2c.775,1.031,1.554,2.06,2.316,3.1a.486.486,0,0,1,.044.416c-.546,1.13-1.11,2.25-1.677,3.37a1.128,1.128,0,0,1-.219.23l-.085-.049c0-.533-.01-1.067.011-1.6,0-.083.139-.182.235-.237A1.648,1.648,0,1,0,10.5,4.091a1.538,1.538,0,0,0,.84,1.327.416.416,0,0,1,.257.448c-.015.467-.005.935-.005,1.4Z" fill="orange"/>
        <path id="Path_6" data-name="Path 6" d="M19.787,13.069l-2.818-1.7.848-1.41,2.818,1.7Z" fill="orange"/>
        <path id="Path_7" data-name="Path 7" d="M13.571,10.568H10.72c.234-.706.457-1.394.7-2.078.019-.054.145-.1.223-.1.342-.011.686-.014,1.027,0a.3.3,0,0,1,.222.145C13.124,9.2,13.341,9.875,13.571,10.568Z" fill="orange"/>
        <path id="Path_8" data-name="Path 8" d="M1.39,7.218l.979-.643A3.731,3.731,0,0,0,4.5,8.456L2.3,9.908A3.717,3.717,0,0,0,1.39,7.218Z" fill="orange"/>
        <path id="Path_9" data-name="Path 9" d="M0,5.038c.324-.117.608-.232.9-.315a.315.315,0,0,1,.267.1c.2.264.367.545.567.851l-.912.6C.552,5.868.29,5.474,0,5.038Z" fill="orange"/>
        <path id="Path_10" data-name="Path 10" d="M12.141,3.452a.548.548,0,1,1-.544.542A.553.553,0,0,1,12.141,3.452Z" fill="orange"/>
      </g>
    </g>
  </g>
</svg>
