<svg xmlns="http://www.w3.org/2000/svg" xmlns:xlink="http://www.w3.org/1999/xlink" width="25" height="25" viewBox="0 0 25 25">
  <defs>
    <clipPath id="clip-mobile">
      <rect width="25" height="25"/>
    </clipPath>
  </defs>
  <g id="mobile" clip-path="url(#clip-mobile)">
    <rect width="25" height="25" fill="#fff"/>
    <g id="mobile-2" data-name="mobile" transform="translate(0.5 0.675)">
      <g id="Group_3" data-name="Group 3">
        <path id="Path_17" data-name="Path 17" d="M0,7.583c.094-.354.162-.717.287-1.059A3.866,3.866,0,0,1,3.8,4.062c.069,0,.138.007.221.011V11.8a2.781,2.781,0,0,1-1.266-.15A3.828,3.828,0,0,1,.051,8.49C.039,8.422.017,8.355,0,8.288Z" fill="orange"/>
        <path id="Path_18" data-name="Path 18" d="M19.607,11.872V22.328a1.2,1.2,0,0,1-1.256,1.32c-.07,0-.141,0-.211,0q-5.921,0-11.842-.006a2.119,2.119,0,0,1-.753-.137,1.04,1.04,0,0,1-.7-1.053q.009-10.549,0-21.1A1.2,1.2,0,0,1,6.064.069c.062,0,.125,0,.188,0q5.968,0,11.936.006A1.942,1.942,0,0,1,18.9.205a1.051,1.051,0,0,1,.716,1.069Q19.6,6.575,19.607,11.872Zm-13.83-.011v8.67c0,.438.117.555.556.555H18.082c.491,0,.586-.1.586-.592V3.2c0-.46-.107-.568-.564-.568H6.332c-.438,0-.555.118-.555.557Q5.777,7.527,5.777,11.861ZM12.221.95H10.388c-.31,0-.479.138-.485.387s.17.415.486.415q1.845,0,3.69,0c.292,0,.481-.165.48-.4s-.187-.4-.48-.4Zm0,22.208a.79.79,0,0,0,.8-.783.8.8,0,0,0-1.59-.005A.793.793,0,0,0,12.22,23.158Z" fill="orange"/>
        <path id="Path_19" data-name="Path 19" d="M23.233,13.333V17.5H20.42V13.333Z" fill="orange"/>
        <path id="Path_20" data-name="Path 20" d="M4.04,16.429c0,.869,0,1.7,0,2.541a.236.236,0,0,1-.075.158c-.515.456-1.033.907-1.579,1.384L.631,16.777Z" fill="orange"/>
        <path id="Path_21" data-name="Path 21" d="M23.512,0,24,.475,20.407,4.088c0-.305,0-.615,0-.925a.267.267,0,0,1,.083-.156q1.473-1.482,2.95-2.958A.519.519,0,0,1,23.512,0Z" fill="orange"/>
        <path id="Path_22" data-name="Path 22" d="M6.582,3.441h11.28c0,.341.009.675-.007,1.007,0,.069-.089.14-.148.2q-2.141,2.147-4.284,4.289c-.3.3-.3.471,0,.77s.619.621.931.93a.421.421,0,0,0,.7,0q1.29-1.286,2.575-2.575a1.958,1.958,0,0,0,.157-.2l.057.037v4.619H17.6c-1.081,0-2.162,0-3.242,0a.631.631,0,0,0-.512.226c-.7.782-1.407,1.557-2.11,2.337a.419.419,0,0,0-.005.675c.713.791,1.431,1.578,2.142,2.371a.556.556,0,0,0,.455.192c1.081,0,2.162,0,3.242,0h.275v1.949H6.582v-.251c0-.627.006-1.253,0-1.88a.464.464,0,0,1,.177-.4c.683-.587,1.355-1.186,2.033-1.779.162-.142.3-.291.2-.524s-.293-.268-.525-.243c-.614.067-1.229.122-1.864.184-.005-.079-.014-.147-.014-.215,0-1.065,0-2.13,0-3.195a.345.345,0,0,1,.151-.312,4.632,4.632,0,0,0,0-7.4.329.329,0,0,1-.152-.312C6.591,3.776,6.582,3.621,6.582,3.441Z" fill="orange"/>
        <path id="Path_23" data-name="Path 23" d="M17.849,17.595c-.932,0-1.841-.04-2.745.014A1.432,1.432,0,0,1,13.734,17c-.37-.492-.82-.924-1.235-1.383-.057-.063-.111-.129-.172-.2.639-.706,1.269-1.4,1.9-2.1a.272.272,0,0,1,.18-.08c1.127,0,2.254,0,3.381,0,.014,0,.028.011.058.024C17.849,14.694,17.849,16.129,17.849,17.595Z" fill="orange"/>
        <path id="Path_24" data-name="Path 24" d="M6.6,5.027a3.886,3.886,0,0,1,0,5.837Z" fill="orange"/>
        <path id="Path_25" data-name="Path 25" d="M17.869,5.591c0,.361,0,.736,0,1.11a.291.291,0,0,1-.082.182c-1.043,1.047-2.089,2.091-3.127,3.129L14.051,9.4C15.306,8.146,16.583,6.874,17.869,5.591Z" fill="orange"/>
        <path id="Path_26" data-name="Path 26" d="M6.6,16.1,7.655,16c.008.014.015.028.023.041L6.6,16.979C6.6,16.672,6.6,16.4,6.6,16.1Z" fill="orange"/>
        <path id="Path_27" data-name="Path 27" d="M12.6,22.384a.373.373,0,0,1-.378.368.381.381,0,0,1-.371-.378A.37.37,0,0,1,12.242,22,.36.36,0,0,1,12.6,22.384Z" fill="orange"/>
      </g>
    </g>
  </g>
</svg>
