<svg xmlns="http://www.w3.org/2000/svg" xmlns:xlink="http://www.w3.org/1999/xlink" width="25" height="25" viewBox="0 0 25 25">
  <defs>
    <clipPath id="clip-path">
      <rect id="Rectangle_6" data-name="Rectangle 6" width="25" height="25"/>
    </clipPath>
  </defs>
  <g id="website" clip-path="url(#clip-path)">
    <rect width="25" height="25" fill="#fff"/>
    <g id="website-2" data-name="website" clip-path="url(#clip-path)">
      <rect id="Rectangle_5" data-name="Rectangle 5" width="25" height="25" fill="#fff"/>
      <g id="website-3" data-name="website" transform="translate(0.5 1.597)">
        <g id="Group_4" data-name="Group 4">
          <path id="Path_28" data-name="Path 28" d="M14.161,17.771V19.69c.585,0,1.147.007,1.708,0,.513-.008.741.214.748.745.018,1.373.033,1.372-1.341,1.372H8.2c-.712,0-.81-.108-.817-.828,0-.2.006-.393,0-.59a.6.6,0,0,1,.675-.694H9.813v-1.92H1.372C.39,17.769,0,17.391,0,16.419V1.326C0,.393.4,0,1.34,0H22.682C23.665,0,24,.343,24,1.311V16.345c0,1.051-.373,1.425-1.413,1.425H14.161ZM22.1,1.989H2.029v11.94H22.1ZM11.928,16.6c.489.015.829-.277.817-.664a.7.7,0,0,0-.662-.756.713.713,0,0,0-.774.7A.684.684,0,0,0,11.928,16.6Z" fill="#ff561b"/>
          <path id="Path_29" data-name="Path 29" d="M12.541,12.467V8.732H18.4v3.735Z" fill="#ff561b"/>
          <path id="Path_30" data-name="Path 30" d="M11.513,3.505V7.22H5.667V3.505Z" fill="#ff561b"/>
          <path id="Path_31" data-name="Path 31" d="M18.409,3.5V4.62H12.553V3.5Z" fill="#ff561b"/>
          <path id="Path_32" data-name="Path 32" d="M12.543,6.089H18.4V7.233H12.543Z" fill="#ff561b"/>
          <path id="Path_33" data-name="Path 33" d="M11.513,8.741v1.12H5.667V8.741Z" fill="#ff561b"/>
          <path id="Path_34" data-name="Path 34" d="M11.486,12.476H5.669V11.341h5.817Z" fill="#ff561b"/>
        </g>
      </g>
    </g>
  </g>
</svg>
